#!OML:ASF H:\Terrain\Patient Classification 1\Terrain2\Thursday\justin.ASF
:FULLY-SPECIFIED
:DEGREES
1393
root 19.547 20.8595 0.969149 180.494 0.6744 -177.672
lowerback 3.21122 -0.449096 -1.44525
upperback 1.90086 -0.532065 2.25692
thorax 0.186272 -0.246235 3.14522
lowerneck -12.0849 -3.48275 -8.13619
upperneck 39.9054 1.4904 2.42014
head 16.3696 1.38565 3.27032
rclavicle 7.45443e-017 7.95139e-015
rhumerus -31.4971 -4.83756 -82.9123
rradius 37.1612
rwrist -13.5714
rhand -19.9944 11.9654
rfingers 7.12502
rthumb 6.34527 -17.9196
lclavicle 7.45443e-017 7.95139e-015
lhumerus -30.4558 3.24169 82.8819
lradius 40.6073
lwrist 5.47789
lhand -13.2609 23.9225
lfingers 7.12502
lthumb 12.8417 53.5074
rfemur -11.5978 -2.23065 24.878
rtibia 35.7269
rfoot -18.1077 -1.54209
rtoes 10.8064
lfemur -9.30522 1.8424 -19.2375
ltibia 28.8427
lfoot -14.4682 -10.7343
ltoes 4.4459
1394
root 19.5587 20.8525 0.925339 180.515 0.494581 -177.67
lowerback 3.09672 -0.41626 -1.31204
upperback 1.85726 -0.485855 2.26101
thorax 0.201116 -0.222564 3.07214
lowerneck -11.9929 -3.5256 -8.22499
upperneck 39.9466 1.47675 2.44709
head 16.372 1.38345 3.30013
rclavicle 2.11209e-015 -1.31198e-014
rhumerus -31.6475 -4.7064 -82.8916
rradius 36.6426
rwrist -13.7547
rhand -20.2739 11.8707
rfingers 7.12502
rthumb 6.07543 -18.0221
lclavicle 2.11209e-015 -1.31198e-014
lhumerus -30.5885 3.25691 83.0541
lradius 40.3534
lwrist 6.07313
lhand -15.0728 22.1021
lfingers 7.12502
lthumb 11.0946 51.7888
rfemur -11.0946 -2.30618 24.9414
rtibia 34.961
rfoot -18.3168 -1.99833
rtoes 9.90934
lfemur -9.22755 1.79222 -19.2043
ltibia 28.9706
lfoot -14.7944 -10.6846
ltoes 3.50637
1395
root 19.572 20.8477 0.883424 180.658 0.290534 -177.887
lowerback 2.85861 -0.380983 -1.38615
upperback 1.77447 -0.44958 2.15893
thorax 0.246652 -0.208629 3.00604
lowerneck -11.9674 -3.63778 -8.49545
upperneck 40.1063 1.31061 2.78967
head 16.4619 1.33335 3.48715
rclavicle -9.44227e-015 2.48481e-014
rhumerus -31.8551 -4.89467 -82.873
rradius 36.117
rwrist -13.8048
rhand -20.184 11.6298
rfingers 7.12502
rthumb 6.16222 -18.2606
lclavicle -9.44227e-015 2.48481e-014
lhumerus -30.6081 3.25189 83.1655
lradius 39.9606
lwrist 6.52008
lhand -16.3872 22.6286
lfingers 7.12502
lthumb 9.82659 52.3793
rfemur -10.7561 -2.46861 24.767
rtibia 34.3593
rfoot -18.6422 -1.87757
rtoes 12.0933
lfemur -9.27645 1.85176 -19.3924
ltibia 29.0044
lfoot -14.779 -10.9175
ltoes 2.88564
1396
root 19.5827 20.8463 0.849207 180.865 0.210445 -178.242
lowerback 2.52724 -0.314211 -1.60048
upperback 1.75838 -0.373058 2.02888
thorax 0.411375 -0.177481 2.98885
lowerneck -12.0738 -3.69689 -8.57507
upperneck 40.1782 1.22319 2.91316
head 16.5336 1.30299 3.55004
rclavicle -7.35503e-015 1.64991e-014
rhumerus -31.9634 -5.19477 -82.7753
rradius 35.6526
rwrist -13.4683
rhand -19.6851 10.9226
rfingers 7.12502
rthumb 6.64377 -18.9532
lclavicle -7.35503e-015 1.64991e-014
lhumerus -30.4788 3.70116 83.0758
lradius 39.4173
lwrist 5.93865
lhand -16.0203 22.5246
lfingers 7.12502
lthumb 10.1806 52.2583
rfemur -10.5366 -2.61213 24.4386
rtibia 33.9094
rfoot -18.9654 -1.33566
rtoes 18.076
lfemur -9.37158 1.7062 -19.7689
ltibia 28.9853
lfoot -14.7947 -10.822
ltoes 1.94008
1397
root 19.5895 20.8475 0.819165 181.001 0.394155 -178.254
lowerback 2.33202 -0.176806 -1.46411
upperback 1.75288 -0.187957 2.00589
thorax 0.502324 -0.0853679 2.88377
lowerneck -11.9734 -3.68719 -8.50473
upperneck 40.0422 1.19416 2.8851
head 16.4359 1.29905 3.50908
rclavicle -3.42904e-015 -1.80894e-014
rhumerus -31.9394 -5.43672 -82.6075
rradius 34.905
rwrist -12.9916
rhand -19.454 10.6048
rfingers 7.12502
rthumb 6.8669 -19.2638
lclavicle -3.42904e-015 -1.80894e-014
lhumerus -30.48 4.2083 82.9768
lradius 39.0153
lwrist 5.4055
lhand -15.9098 22.1754
lfingers 7.12502
lthumb 10.2872 51.9038
rfemur -10.3588 -2.50292 24.4689
rtibia 33.565
rfoot -19.552 -1.41806
rtoes 17.7997
lfemur -9.37051 1.43954 -19.7978
ltibia 28.9758
lfoot -14.9392 -10.3503
ltoes 1.94904
1398
root 19.5939 20.8467 0.787081 181.034 0.713227 -177.839
lowerback 2.28887 0.0338412 -0.826825
upperback 1.72257 0.108799 2.05756
thorax 0.477342 0.0711054 2.57238
lowerneck -11.7168 -3.6654 -8.35645
upperneck 39.8227 1.14192 2.85735
head 16.2553 1.30309 3.44341
rclavicle 1.49089e-016 6.55989e-015
rhumerus -32.0243 -5.65136 -82.4662
rradius 34.0489
rwrist -12.7955
rhand -19.378 10.9282
rfingers 7.12502
rthumb 6.94029 -18.938
lclavicle 1.49089e-016 6.55989e-015
lhumerus -30.6624 4.54842 82.9386
lradius 38.7097
lwrist 5.06158
lhand -16.1666 22.8943
lfingers 7.12502
lthumb 10.0394 52.6349
rfemur -10.1366 -2.27938 24.9422
rtibia 33.2711
rfoot -19.4621 -1.38065
rtoes 17.1876
lfemur -9.20607 1.27239 -19.3785
ltibia 28.9878
lfoot -15.2508 -9.6534
ltoes 1.1985
1399
root 19.601 20.8466 0.754773 181.135 0.896587 -177.383
lowerback 2.14885 0.181809 -0.187652
upperback 1.70104 0.321923 2.14018
thorax 0.525081 0.185419 2.29425
lowerneck -11.622 -3.65979 -8.16659
upperneck 39.6916 1.16737 2.61388
head 16.1624 1.31268 3.29666
rclavicle 7.20594e-016 -1.80894e-014
rhumerus -32.1179 -5.95172 -82.3157
rradius 33.3301
rwrist -12.4993
rhand -19.1506 11.2464
rfingers 7.12502
rthumb 7.15981 -18.6124
lclavicle 7.20594e-016 -1.80894e-014
lhumerus -30.8214 4.89256 82.9473
lradius 38.3194
lwrist 4.91091
lhand -16.2292 23.07
lfingers 7.12502
lthumb 9.97904 52.8134
rfemur -9.97904 -2.19826 25.4691
rtibia 32.9728
rfoot -19.3799 -1.30815
rtoes 16.8191
lfemur -9.13971 1.02745 -18.8934
ltibia 29.0495
lfoot -15.5031 -9.09988
ltoes -0.00816686
1400
root 19.611 20.8546 0.723841 181.342 1.08197 -177.27
lowerback 1.89788 0.277389 0.00730469
upperback 1.69622 0.450472 2.18891
thorax 0.656284 0.251106 2.23423
lowerneck -11.66 -3.66626 -8.14474
upperneck 39.6463 1.22993 2.39907
head 16.1483 1.31048 3.20577
rclavicle 2.70844e-015 9.54166e-015
rhumerus -31.9351 -6.5284 -81.9603
rradius 32.6058
rwrist -11.0508
rhand -18.5577 10.3713
rfingers 7.12502
rthumb 7.73208 -19.4673
lclavicle 2.70844e-015 9.54166e-015
lhumerus -30.8136 5.45628 82.9315
lradius 37.7322
lwrist 4.83061
lhand -16.7616 22.5358
lfingers 7.12502
lthumb 9.46533 52.3032
rfemur -9.96563 -2.06552 25.6161
rtibia 32.6903
rfoot -19.2191 -1.13233
rtoes 17.4618
lfemur -9.26788 0.662043 -18.7506
ltibia 29.1549
lfoot -15.5515 -8.77215
ltoes 0.0960278
1401
root 19.6197 20.8591 0.691252 181.389 1.36995 -177.095
lowerback 1.83264 0.415665 0.268893
upperback 1.70262 0.642043 2.26607
thorax 0.693746 0.351097 2.16466
lowerneck -11.6873 -3.69737 -8.22388
upperneck 39.684 1.22518 2.40331
head 16.1775 1.3004 3.22484
rclavicle -4.47266e-015 1.19271e-015
rhumerus -31.7345 -7.3883 -81.357
rradius 31.7925
rwrist -8.43249
rhand -17.2249 8.81716
rfingers 7.12502
rthumb 9.01837 -20.9701
lclavicle -4.47266e-015 1.19271e-015
lhumerus -30.8979 6.01627 82.896
lradius 37.1677
lwrist 4.83939
lhand -17.7424 22.6455
lfingers 7.12502
lthumb 8.51897 52.4536
rfemur -9.81303 -2.00947 25.789
rtibia 32.4803
rfoot -19.0727 -0.750617
rtoes 18.2094
lfemur -9.20004 0.528573 -18.5425
ltibia 29.2504
lfoot -15.7018 -8.42315
ltoes -0.736241
1402
root 19.628 20.8567 0.664046 181.35 1.50705 -176.839
lowerback 1.95845 0.508769 0.620398
upperback 1.67116 0.780703 2.35619
thorax 0.58928 0.426879 2.05637
lowerneck -11.6696 -3.73397 -8.23957
upperneck 39.7785 1.22 2.40564
head 16.2252 1.30685 3.23613
rclavicle -1.51573e-015 3.57812e-015
rhumerus -31.6473 -7.87202 -81.018
rradius 30.7584
rwrist -7.33118
rhand -16.7136 9.11794
rfingers 7.12502
rthumb 9.51165 -20.6474
lclavicle -1.51573e-015 3.57812e-015
lhumerus -31.2205 6.46273 82.8542
lradius 36.7842
lwrist 5.12817
lhand -17.9954 22.9575
lfingers 7.12502
lthumb 8.27482 52.7754
rfemur -9.59451 -2.24183 26.0436
rtibia 32.333
rfoot -18.8408 -0.410283
rtoes 17.7668
lfemur -9.04821 0.388357 -18.2279
ltibia 29.3157
lfoot -15.8536 -8.3061
ltoes 0.141559
1403
root 19.637 20.8519 0.643907 181.35 1.5262 -176.843
lowerback 2.08495 0.540717 0.674634
upperback 1.66985 0.830165 2.3955
thorax 0.515728 0.453568 2.06403
lowerneck -11.7068 2.21214 -9.63854
upperneck 39.3835 -1.41003 5.34533
head 15.9942 -3.063 3.34093
rclavicle -6.4605e-016 -7.95139e-016
rhumerus -31.4378 -7.81145 -81.0405
rradius 29.5857
rwrist -8.2084
rhand -17.4474 10.4965
rfingers 7.12502
rthumb 8.80364 -19.2998
lclavicle -6.4605e-016 -7.95139e-016
lhumerus -31.4748 7.018 82.8245
lradius 36.3692
lwrist 5.14723
lhand -17.7183 23.2084
lfingers 7.12502
lthumb 8.54219 53.0156
rfemur -9.47856 -2.56214 26.0254
rtibia 32.2495
rfoot -18.8124 -0.125978
rtoes 17.8733
lfemur -8.96791 0.0617162 -18.2201
ltibia 29.3537
lfoot -16.0945 -8.14707
ltoes 2.40848
1404
root 19.646 20.855 0.618063 181.416 1.56467 -176.948
lowerback 2.01519 0.583009 0.607972
upperback 1.71071 0.884118 2.40795
thorax 0.593876 0.479981 2.11471
lowerneck -11.8594 2.2201 -9.79995
upperneck 39.3664 -1.37036 5.5546
head 16.0188 -3.02817 3.47337
rclavicle -4.19933e-015 1.59028e-015
rhumerus -31.24 -8.10737 -80.826
rradius 28.6165
rwrist -7.84688
rhand -17.6003 11.2437
rfingers 7.12502
rthumb 8.65607 -18.5589
lclavicle -4.19933e-015 1.59028e-015
lhumerus -31.577 7.53078 82.8385
lradius 35.922
lwrist 4.92494
lhand -17.6474 23.5926
lfingers 7.12502
lthumb 8.61058 53.397
rfemur -9.45708 -2.85853 25.8891
rtibia 32.2697
rfoot -18.9119 0.0645937
rtoes 16.2692
lfemur -8.94325 -0.218358 -18.3451
ltibia 29.3445
lfoot -16.1391 -7.95749
ltoes 4.88174
1405
root 19.6561 20.8654 0.591475 181.605 1.53529 -177.322
lowerback 1.81469 0.638203 0.307482
upperback 1.67289 0.939214 2.27619
thorax 0.663141 0.500121 2.14954
lowerneck -11.93 2.21827 -9.59648
upperneck 39.4027 -1.3773 5.46099
head 16.0552 -3.00926 3.39649
rclavicle -8.99501e-015 1.19271e-015
rhumerus -31.3367 -8.94346 -80.394
rradius 27.9769
rwrist -6.14736
rhand -17.3562 11.4515
rfingers 7.12502
rthumb 8.89163 -18.3412
lclavicle -8.99501e-015 1.19271e-015
lhumerus -31.6805 7.87668 82.803
lradius 35.4106
lwrist 4.62834
lhand -17.6665 24.0907
lfingers 7.12502
lthumb 8.59215 53.8959
rfemur -9.60598 -3.0192 25.4745
rtibia 32.3753
rfoot -19.0275 0.194262
rtoes 14.9158
lfemur -9.07196 -0.41816 -18.7196
ltibia 29.2846
lfoot -15.7609 -8.08265
ltoes 9.10106
1406
root 19.671 20.8621 0.573289 181.744 1.55209 -177.715
lowerback 1.72216 0.73295 -0.029221
upperback 1.6469 1.05044 2.12586
thorax 0.681353 0.548662 2.18379
lowerneck -11.8675 2.16928 -9.43882
upperneck 39.3294 -1.42205 5.3199
head 16.0068 -3.01143 3.29842
rclavicle 1.22501e-014 3.73715e-014
rhumerus -31.4765 -9.29714 -80.2806
rradius 27.5316
rwrist -6.04107
rhand -17.9758 11.4338
rfingers 7.12502
rthumb 8.2937 -18.3834
lclavicle 1.22501e-014 3.73715e-014
lhumerus -31.7979 8.20972 82.7096
lradius 34.8264
lwrist 4.02759
lhand -17.419 24.3144
lfingers 7.12502
lthumb 8.83103 54.1096
rfemur -9.7552 -2.92792 25.0967
rtibia 32.4715
rfoot -19.0704 0.240826
rtoes 15.1928
lfemur -9.13199 -0.33902 -19.091
ltibia 29.2427
lfoot -15.7312 -8.14331
ltoes 10.4335
